# xmcd CD database file
#
# Track frame offsets:
#	150
#	17810
#	32432
#	54047
#	82542
#	98747
#	116332
#	138205
#	154472
#	174767
#	186295
#	203747
#	236770
#	252395
#
# Disc length: 3774 seconds
#
# Revision: 0
# Processed by: cddbd v1.5.2PL0 Copyright (c) Steve Scherf et al.
# Submitted via: CDex 2.12
#
DISCID=a10ebc0e
DTITLE=Various Artist - The Best of Windham Hill - Timeless Journey
DYEAR=2003
DGENRE=New Age
TTITLE0=Carol of the Bells
TTITLE1=Light and Song
TTITLE2=Snow in the Praries
TTITLE3=Simple Praise
TTITLE4=In the Winter's Pale
TTITLE5=Winter Bourne
TTITLE6=Three Candles
TTITLE7=The Rain
TTITLE8=Yesterday's Rain
TTITLE9=Prelude to Cello Suite #1 in G Major
TTITLE10=By the Fireside
TTITLE11=Western Sky
TTITLE12=Greensleeves
TTITLE13=Poli'ahu-The Snow Goddess of Mauna Kea
EXTD=YEAR: 2003
EXTT0=
EXTT1=
EXTT2=
EXTT3=
EXTT4=
EXTT5=
EXTT6=
EXTT7=
EXTT8=
EXTT9=
EXTT10=
EXTT11=
EXTT12=
EXTT13=
PLAYORDER=
